<svg xmlns="http://www.w3.org/2000/svg" xmlns:xlink="http://www.w3.org/1999/xlink" width="32" height="31.969" viewBox="0 0 32 31.969">
  <defs>
    <clipPath id="clip-path">
      <rect width="32" height="31.968" fill="none"/>
    </clipPath>
  </defs>
  <g id="Register" clip-path="url(#clip-path)">
    <path id="パス_1" data-name="パス 1" d="M27.836,11.917V3.545A3.044,3.044,0,0,0,24.791.5H6.524A3.044,3.044,0,0,0,3.479,3.545V27.9a3.044,3.044,0,0,0,3.045,3.045H24.791a3.046,3.046,0,0,0,2.62-1.495" transform="translate(-2.718 0.261)" fill="none" stroke="#0065bc" stroke-linecap="round" stroke-linejoin="round" stroke-width="1"/>
    <line id="線_298" data-name="線 298" x2="6.089" transform="translate(3.806 5.328)" fill="none" stroke="#0065bc" stroke-linecap="round" stroke-linejoin="round" stroke-width="1"/>
    <line id="線_299" data-name="線 299" y1="6.85" transform="translate(6.85 5.328)" fill="none" stroke="#0065bc" stroke-linecap="round" stroke-linejoin="round" stroke-width="1"/>
    <path id="パス_2" data-name="パス 2" d="M17.894,7.848,11.5,6.021l1.827,6.394L24.255,23.343a3.229,3.229,0,0,0,4.567-4.567h0Z" transform="translate(1.471 3.145)" fill="none" stroke="#0065bc" stroke-linecap="round" stroke-linejoin="round" stroke-width="1"/>
    <line id="線_300" data-name="線 300" y1="4.567" x2="4.567" transform="translate(24.357 20.551)" fill="none" stroke="#0065bc" stroke-linecap="round" stroke-linejoin="round" stroke-width="1"/>
    <line id="線_301" data-name="線 301" y1="4.567" x2="4.567" transform="translate(14.798 10.992)" fill="none" stroke="#0065bc" stroke-linecap="round" stroke-linejoin="round" stroke-width="1"/>
    <line id="線_302" data-name="線 302" x2="6.089" transform="translate(14.462 5.328)" fill="none" stroke="#0065bc" stroke-linecap="round" stroke-linejoin="round" stroke-width="1"/>
    <line id="線_303" data-name="線 303" x2="6.089" transform="translate(5.328 17.506)" fill="none" stroke="#0065bc" stroke-linecap="round" stroke-linejoin="round" stroke-width="1"/>
    <line id="線_304" data-name="線 304" x2="9.895" transform="translate(5.328 22.073)" fill="none" stroke="#0065bc" stroke-linecap="round" stroke-linejoin="round" stroke-width="1"/>
    <line id="線_305" data-name="線 305" x2="13.701" transform="translate(5.328 26.64)" fill="none" stroke="#0065bc" stroke-linecap="round" stroke-linejoin="round" stroke-width="1"/>
  </g>
</svg>
