<svg xmlns="http://www.w3.org/2000/svg" width="1080.56" height="843.723" viewBox="0 0 1080.56 843.723">
  <g id="アートワーク_1" data-name="アートワーク 1" transform="matrix(0.966, 0.259, -0.259, 0.966, 527.666, 452.592)">
    <g id="グループ_879" data-name="グループ 879" transform="translate(-438.214 -498.139)">
      <path id="パス_2023" data-name="パス 2023" d="M320.382,280.094a68.318,68.318,0,0,0,5.227-10.455c.721-3.064,2.524-6.669,0-8.652s-3.245-1.442-6.85-5.227-3.966-2.7-5.227-5.227a5.768,5.768,0,0,0-5.227-3.425c-1.983,0-1.8-7.03-1.8-7.03a9.013,9.013,0,0,0,3.425-5.227c.541-3.245,0-20.91,0-20.91a18.564,18.564,0,0,1,5.227-1.8,47.938,47.938,0,0,1,7.03,0l3.425-5.227s3.605-5.227,5.227-3.425a4.687,4.687,0,0,0,3.425,1.8l5.227-10.455s4.867-2.163,5.227-3.425a33.333,33.333,0,0,0,0-5.227s-5.227-4.687-5.227-7.03-3.425-10.455-3.425-10.455,2.343-4.146,3.425-3.425,7.03,0,7.03,0l7.03,7.03a13.879,13.879,0,0,0,5.227,5.227c3.245,1.622,12.077-1.8,12.077-1.8s5.227-.36,7.03,1.8,8.111,2.163,8.652,0,7.39-11.176,8.652-12.077S396.99,155,396.99,155s-3.785-6.669-3.425-8.652-3.425-10.455-3.425-10.455a69.214,69.214,0,0,1,5.227-7.03,110.671,110.671,0,0,1,10.455-5.227s4.146-9.193,3.425-10.455-3.425-19.648-1.8-20.91a32.629,32.629,0,0,0,5.227-7.03c.9-1.442,1.8-13.88,1.8-13.88V56.218s-6.129-15.141-8.652-20.91-3.245-7.571-3.425-10.455S407.625,14.4,407.625,14.4l1.8-8.652,3.425,1.8h7.03L422.766.7a78.948,78.948,0,0,0,5.227,8.652c1.622,1.8,7.751,6.309,10.455,8.652s12.257,19.467,15.682,24.334,6.85,11.356,8.652,13.88,16.223,19.467,19.107,20.909S495.769,89.2,495.769,89.2s12.978,4.506,13.88,7.03,7.03,3.605,7.03,5.227a15.681,15.681,0,0,0,1.8,5.227l8.652,1.8s2.163,1.622,3.425,0a21.635,21.635,0,0,1,5.227-3.425l5.227,3.425-1.8,5.227s4.687,5.588,5.227,3.425,3.425-8.652,3.425-8.652,4.687,7.39,5.227,8.652,10.094,5.948,12.077,5.227a105.092,105.092,0,0,1,10.455-1.8L587.7,108.492s8.832-3.966,8.652-5.227S606.806,92.81,606.806,92.81s2.7,1.622,1.8,3.425l-7.03,13.88-3.425,10.455-7.03,10.455,1.8,5.227,5.227,7.03,3.425,3.425,5.227,3.425-7.03,1.8,1.8,7.03,1.8,5.227,3.245,4.687,3.425,1.8,10.455-8.652h8.652l1.8,3.425-10.455,3.425-3.425,8.652s-7.571,1.262-12.077,1.8a49.569,49.569,0,0,0-8.652,1.8l-3.425,5.227-10.455,5.227c-1.622.9-5.227-3.425-5.227-3.425s-5.047-.721-3.425,3.425,2.163,2.884,0,3.425-13.339,2.524-17.3,0a14.42,14.42,0,0,1-5.227-5.227s-10.275,2.163-12.077,3.425-12.438,9.914-15.682,12.077-23.433,25.957-24.334,27.759-1.8,13.88-1.8,13.88V259l-5.227,3.425v5.227s-15.682-14.42-15.682-15.5-17.124-4.326-22.892-9.193-12.437-7.931-15.141-9.914-12.077-5.227-12.077-5.227l-7.03-7.03s-12.438-3.425-13.88-3.425-9.193,3.966-12.077,5.227-10.815,4.326-12.077,7.03-7.03,7.03-7.03,7.03l-1.8,3.425a31.181,31.181,0,0,0-5.227-7.03,36.952,36.952,0,0,1-5.227-7.03c-1.262-1.622-3.425-5.227-3.425-5.227s-7.571-1.442-8.652,0-5.227-1.8-5.227-1.8l-8.652,10.455s-3.064,7.39-1.8,10.455,3.605,4.326,5.227,7.03,5.768,4.506,7.03,5.227,5.588,2.163,7.03,1.8,8.652,3.425,8.652,3.425a78.936,78.936,0,0,1,5.227,7.03,21.811,21.811,0,0,0,5.227,5.227l7.03,3.425s3.245,7.931,0,8.652-8.292,5.047-10.455,3.425-10.455-7.03-10.455-7.03l-3.425-3.425-5.227,5.227s-7.571,7.03-8.652,7.03,2.523,7.03,1.8,8.652-12.077,7.03-12.077,7.03l-3.425,3.425-7.03-3.425s-3.605-5.227-3.425-7.03-1.262-7.931,0-8.652S320.382,280.094,320.382,280.094Z" transform="translate(245.468 -0.7)" fill="#d7efff" stroke="#fff" stroke-width="0.685" fill-rule="evenodd"/>
      <path id="パス_2024" data-name="パス 2024" d="M311.825,227.106s5.948-10.455,6.85-8.652,10.455-1.8,10.455-1.8l1.8-7.03a22.888,22.888,0,0,0,3.425-5.227c.18-1.262,1.8-7.03,1.8-7.03l-3.425-7.03a61.31,61.31,0,0,0,3.425-5.227c.721-1.262,5.227,3.425,5.227,3.425l6.85-3.425,1.8,7.03s1.442,6.489,1.8,8.652,0,12.077,0,12.077h8.652l3.425-10.455,7.03,1.8,7.03,5.227s3.785.721,3.425-3.425a22.173,22.173,0,0,1,1.8-8.652l3.425-8.652-3.425-5.227s-9.013,2.7-10.455,3.425-9.553.541-10.455,1.8-3.425-5.227-3.425-5.227l1.8-7.03L365.9,166h5.227l5.227,1.8,5.227,8.652h3.425l8.652-5.227-1.8,17.3s-2.163,17.485-1.8,20.91,2.163,11.9,3.425,13.88,2.884,3.605,3.425,5.227,7.03,8.652,7.03,8.652l3.425,3.425-3.425,3.425-8.652,1.8-6.489,1.262-10.274,6.309s-4.687.18-5.768.9-8.292,2.524-8.292,2.524l1.8-7.931,3.064-6.85s-5.408,1.442-5.227,0a12.8,12.8,0,0,0-1.8-5.227l-7.571,7.03a12.8,12.8,0,0,0-4.687-1.8,9.373,9.373,0,0,0-5.227,1.8l-5.227-5.227-8.652,3.425a31.728,31.728,0,0,0-4.867-1.262,54.446,54.446,0,0,1-7.21-2.163l-1.622,5.768-3.605-5.768-1.8-7.03-3.425-1.8Z" transform="translate(246.995 131.961)" fill="#d7efff" stroke="#fff" stroke-width="0.685" fill-rule="evenodd"/>
      <path id="パス_2025" data-name="パス 2025" d="M382.427,310.306l-5.227-1.8-1.8,8.652s-3.785,5.588-4.146,5.768a22.9,22.9,0,0,1-5.768-.9c-.9-.361-5.768,2.163-5.768,2.163s-.9-1.622-1.262-2.343c-1.442-3.425-3.245-6.669-3.245-6.669h-2.343c-1.622.18-6.129.541-7.03,0a38.018,38.018,0,0,1-3.425-3.425l-1.8-1.8-1.262-1.262-.541-5.768L337,299.49s1.442-5.227.9-6.309l-.9-3.966-3.425-5.227a11.175,11.175,0,0,1-.541-5.047c.36-1.622,1.622-5.948,1.622-5.948s0-4.326.541-4.687a40.539,40.539,0,0,0,3.425-3.425l1.262-4.506a7.932,7.932,0,0,1-1.262-4.146c0-3.245,1.082-4.687,1.8-7.03s1.442-2.524,1.442-3.785a31.916,31.916,0,0,0,.18-4.326,22.532,22.532,0,0,0-.18-5.408c-.18-.721,0-3.425.541-3.425s.721-4.146.721-4.146a10.635,10.635,0,0,0,.541-3.425c0-1.082,1.8-1.8,1.8-1.8l7.03-1.8s7.571-.9,7.03-1.8,7.39-4.506,7.39-4.506l4.867-1.8,7.21-1.442,4.687-.9,3.425-3.425s9.553,9.013,8.652,10.455.9,6.129,0,7.03-.9,7.751,0,7.03,0,1.8,0,1.8,3.425,5.227,5.227,8.652,1.8,14.24,1.8,17.3,1.983,5.588,1.8,7.03a10.454,10.454,0,0,0,1.8,5.227c0-.541-.541,0-1.8,1.8s-2.343,4.326-1.8,5.227-.361,1.983-1.8,3.425a6.669,6.669,0,0,0-1.8,5.227,18.932,18.932,0,0,0,1.8,3.425c.361.541.541,1.8-1.8,3.425s-1.442,3.966-1.8,5.227,1.983,3.425,0,3.425a4.326,4.326,0,0,0-3.425,1.8c-.541.541.361,3.966-1.8,3.425s-4.867-.361-5.227,1.8-3.425,3.425-3.425,3.425Z" transform="translate(266.7 165.025)" fill="#d7efff" stroke="#fff" stroke-width="0.685" fill-rule="evenodd"/>
      <path id="パス_2026" data-name="パス 2026" d="M307.346,242.111a7.211,7.211,0,0,0,5.227,0c2.343-1.082,7.21-3.966,7.03-7.03s.9-4.687,1.8-7.03a56.794,56.794,0,0,0,1.8-7.03V217.6l-1.8-5.227,1.8-5.227,5.227,1.8,7.03,1.8,6.309-2.524,2.343-.9,5.227,5.227,5.227-1.8s5.768,2.524,5.227,1.8,3.245-2.343,3.425-3.425,3.425-3.425,3.425-3.425l1.8,5.227h5.227l-1.442,3.064-2.163,3.785-1.442,7.751-.361,2.7c-.9.9-1.8,8.652-1.8,8.652v8.652s-1.082,5.588-1.8,5.227-1.442,3.425-1.8,5.227a19.829,19.829,0,0,0,1.262,6.129,50.842,50.842,0,0,0-2.343,5.408c0,.541-1.8,2.7-2.524,2.343s.9,3.425,0,3.425-.541,4.867-1.8,5.227,0,7.03,0,7.03,3.425,4.326,3.425,5.227,1.082,7.03,1.082,7.03l-1.082,3.244,1.8,3.425.361,5.227-6.67,4.326a3.6,3.6,0,0,1-1.622,2.343c-1.8.9-6.309,2.524-6.129,1.983s-5.227-2.524-5.227-3.425a51.547,51.547,0,0,0-3.425-7.03l-7.03-1.8-5.588-.541a11.176,11.176,0,0,1-4.867-3.064c-.541-.9-5.227-.361-5.227-.361l-1.8-1.262-1.8-1.8v-5.227c0-1.082,2.524-7.21,3.425-7.03s3.966-2.884,3.425-3.425,1.8-8.652,1.8-8.652V264.283a21.27,21.27,0,0,0,1.8-5.227,21.269,21.269,0,0,0-1.8-5.227l-3.425-5.227-3.425-1.8s-5.588-.541-5.227,0a13.515,13.515,0,0,1,0,3.425H305l-1.8-1.8V245Z" transform="translate(242.822 163.822)" fill="#d7efff" stroke="#fff" stroke-width="0.685" fill-rule="evenodd"/>
      <path id="パス_2027" data-name="パス 2027" d="M337.89,287.416s-4.326,2.884-3.064,7.03c.361,1.082,3.425,3.425,3.425,3.425l-1.442,4.326a8.628,8.628,0,0,1-1.442,1.983,6.309,6.309,0,0,0-2.884,4.326,90.122,90.122,0,0,0-1.262,10.094c-.361,1.442.18,3.245-1.262,4.687a17.305,17.305,0,0,1-4.687,3.425c-1.262.721-3.966.361-4.326,2.163s.361,5.227,0,5.227h8.111a15.328,15.328,0,0,1,2.884,1.622,6.129,6.129,0,0,0,3.605,1.622c3.245.541,2.7-.541,5.047.18s1.082-.721,1.622,1.622a21.809,21.809,0,0,0,1.622,4.506l1.262,2.523,6.309-5.588,3.966-1.262v-8.472c0-.9,2.343-11.536,1.8-12.077s2.524-8.111,3.425-8.652l5.227-3.425,5.227-3.425h5.227s.541-2.884,3.425,0,8.652,10.455,8.652,10.455,2.524-1.442,1.8-3.425-5.227-7.751-5.227-8.652,1.442-1.082,1.8-3.425a51.353,51.353,0,0,0,0-7.03l-1.8-1.8s2.524-3.245,1.8-3.425,1.983-.9,1.8-1.8q-.815-1.756-1.8-3.425a53.138,53.138,0,0,0,3.425-5.227c-.361,0,3.425-3.245,3.425-3.425a13.159,13.159,0,0,1,0-3.425c.36-1.082-1.442-3.064-1.442-3.064l-3.605-1.622h-1.983l-.9,4.867a4.507,4.507,0,0,1-.721,3.425c-1.082,1.8-3.064,4.687-3.425,5.227a4.327,4.327,0,0,1-3.425,0,9.191,9.191,0,0,0-5.227,0l-3.425,1.8-2.884-5.047-1.622-3.785h-9.553s-1.983-3.064-2.884-2.7-2.884-4.146-4.146-3.966A6.129,6.129,0,0,0,346,265.6a37.676,37.676,0,0,0-4.506,3.064c-.9,1.442-5.588,4.146-6.489,3.6s1.262,1.622,1.262,1.622,3.785,6.129,3.425,7.03a13.165,13.165,0,0,0,0,3.425Z" transform="translate(256.98 210.447)" fill="#d7efff" stroke="#fff" stroke-width="0.685" fill-rule="evenodd"/>
      <path id="パス_2028" data-name="パス 2028" d="M299.962,299.419c-.361-.9-1.8-6.669,1.8-8.652s6.669-1.442,7.03-3.425,3.966-5.227,3.425-7.03,1.8-5.768,1.8-7.03a39.839,39.839,0,0,1,1.8-7.03c.361-.541,1.8-8.652,1.8-8.652s1.442,2.524,3.425,3.064a18.573,18.573,0,0,0,4.326,0l4.326,3.245,8.111.9,5.588,1.442,3.425,7.03,5.227,3.425,3.425,5.227,1.8,3.425s-.361,6.129-1.262,6.309a10.636,10.636,0,0,0-3.966,4.146,11.721,11.721,0,0,0,0,3.425c0-.541,3.425,3.425,3.425,3.425l-1.8,5.227-3.425,3.425s-1.983,7.571-1.8,7.03a30.624,30.624,0,0,1,0,5.227V327l-4.326,3.966-3.425,1.8c.361-.18-2.524.18-2.524,1.262V349.71s-3.425,2.884-3.425,3.425-4.867,2.884-5.227,1.8-8.652-5.227-8.652-5.227H310.417s-4.867-2.524-5.227-3.425-1.8-8.652-1.8-8.652l1.8-7.03,2.343-3.966a29.2,29.2,0,0,1,3.064-2.524,34.248,34.248,0,0,0,5.047-3.425s1.983-3.425,1.622-3.966-1.8-5.227-1.8-5.227h-5.227s-1.082-4.687-1.8-5.227a28.127,28.127,0,0,1-2.884-2.7l-2.524-2.163S300.323,300.32,299.962,299.419Z" transform="translate(239.75 205.474)" fill="#d7efff" stroke="#fff" stroke-width="0.685" fill-rule="evenodd"/>
      <path id="パス_2029" data-name="パス 2029" d="M291.545,337.609l6.129-1.622a75.945,75.945,0,0,0,7.931-2.7l4.146-1.8a10.455,10.455,0,0,1,.18-7.751l2.524-5.227a29.248,29.248,0,0,0,2.163-2.884c.361-.721,3.064-3.064,3.064-2.163s7.03,0,7.03,0h5.227s6.489,3.064,7.03,3.425,3.064,1.983,4.506,1.442a20.728,20.728,0,0,0,4.867-3.966l1.082-1.262V303h8.652l5.227,3.425h7.03l1.8,5.227,1.8,3.425,2.884-2.524,4.146-3.245,3.425-1.081a98.921,98.921,0,0,1,5.227,8.652c.361,1.082,0,9.914,0,10.455s2.524,13.519,1.8,17.3-.9,11.356-1.8,12.077.9,7.751,0,8.652-5.588,9.013-7.03,8.652-4.867,3.966-5.227,3.425a41.643,41.643,0,0,0-5.227-3.425h-5.227l-5.227,5.227-3.425,1.8a33.89,33.89,0,0,1-3.425-3.425c-1.442-1.8-5.227-6.85-5.227-6.85a37.836,37.836,0,0,1-3.425-3.425l-5.227-7.03h0s-3.245-3.785-5.227-3.425-8.472,1.082-8.652,1.8a7.931,7.931,0,0,1-5.227,5.227,28.661,28.661,0,0,0-10.455,5.227c-.9,1.081-6.85,3.425-6.85,3.425a19.288,19.288,0,0,1-4.687.9,33.166,33.166,0,0,1-5.768-4.326l-1.8-7.03v-6.489l-1.983-5.588,3.425-3.425.361-2.884Z" transform="translate(230.864 241.909)" fill="#d7efff" stroke="#fff" stroke-width="0.685" fill-rule="evenodd"/>
      <path id="パス_2030" data-name="パス 2030" d="M297.987,388.318s-2.523-3.245-1.8-5.227,1.081-8.472,1.8-8.652,0-3.425,0-3.425l-4.687-5.768v-3.425l1.262-2.884v-9.553l6.85-2.524a98.406,98.406,0,0,1,8.652-5.227l6.489-2.163a26.464,26.464,0,0,0,2.7-2.523l1.262-2.343,8.652-1.8,2.343.9L343.05,346.68a9.2,9.2,0,0,0-.18,4.146c.361,4.146,0,6.309-1.442,7.931l-1.8,1.8v8.652a68.3,68.3,0,0,1,1.262,8.472,47.936,47.936,0,0,1-1.262,5.408l-7.03,1.8a26.32,26.32,0,0,0-7.03,3.425c-.9.541-4.326,3.785-5.588,4.326l-1.442.9c-1.442.9-6.85,2.7-7.03,3.425s-1.442-1.442-2.884-2.524a15.141,15.141,0,0,0-7.39-2.7C300.871,391.743,297.987,388.318,297.987,388.318Z" transform="translate(234.876 265.825)" fill="#d7efff" stroke="#fff" stroke-width="0.685" fill-rule="evenodd"/>
      <path id="パス_2031" data-name="パス 2031" d="M294.463,349.059a32.983,32.983,0,0,0,2.884-5.408c.9-2.343.721-2.524,4.326-3.966a76.892,76.892,0,0,0,7.751-3.785l1.082,4.326,1.082,2.524,6.309,4.687a42.19,42.19,0,0,1,0,8.652c-.541,2.343-1.442,4.146-1.262,5.588a9.914,9.914,0,0,0,1.983,3.425l2.7,3.966a41.815,41.815,0,0,1-1.082,7.751c-.541,1.262-1.983,5.227-.18,7.391a22.715,22.715,0,0,1,3.785,4.506c.18,1.082,2.523.541,2.523.541l7.21,3.785-8.832,1.442c-1.082.36-3.425,1.081-5.227,0a25.234,25.234,0,0,0-6.85-3.425,25.952,25.952,0,0,1-6.85-1.8A39.131,39.131,0,0,1,303.3,394.3c-.9,1.082-2.163,6.85-4.506,7.21a15.322,15.322,0,0,0-5.227,1.8,39.475,39.475,0,0,0-7.03,3.425,18.025,18.025,0,0,1-5.227,1.8s-3.785-2.343-3.425-3.425-.541-5.588-.18-6.129-1.442-2.884-1.442-3.064a82.028,82.028,0,0,1,1.622-8.111c.541-1.8-.541-4.326,0-5.227s-3.425-3.425-3.425-3.425l-2.163,3.605a9.194,9.194,0,0,1-3.064-1.8A20.91,20.91,0,0,1,264,375.736a66.882,66.882,0,0,1,1.8-8.652s6.669-4.326,7.03-5.227,7.571-3.785,7.03-3.425,2.343.361,2.884-.18a12.081,12.081,0,0,1,3.605-1.081l2.343-3.064,2.884-2.343Z" transform="translate(211.362 268.313)" fill="#d7efff" stroke="#fff" stroke-width="0.685" fill-rule="evenodd"/>
      <path id="パス_2032" data-name="パス 2032" d="M350.322,376.992s-.36,12.978,0,13.88.9,6.129,1.8,7.03a17.852,17.852,0,0,1,1.8,5.227s2.884,7.03,3.425,7.03,3.785,7.751,5.227,8.652a41.292,41.292,0,0,1,4.687,4.146l-8.111-5.948-8.111-6.309-3.966-2.343a20.908,20.908,0,0,0-6.309,4.687c-1.262,1.622-9.553,1.082-11,.541s-12.437-2.884-12.077-3.425-2.343-2.884-3.425-5.227a29.924,29.924,0,0,0-5.227-5.227s-5.768-.541-5.227-1.8a6.671,6.671,0,0,0,0-3.425v-3.425c0-.9,9.553-4.867,9.553-4.867l2.7-2.524a13.878,13.878,0,0,0,4.146-2.523c.541-.9,6.309-2.163,6.309-2.163l5.047-1.8.9-3.605V368.52a36.948,36.948,0,0,1-.9-7.21c0-3.245-.9-6.669,0-7.03A8.111,8.111,0,0,0,335,349.052c.18-1.262,0-8.652,0-8.652s5.408,7.571,6.129,7.931a10.818,10.818,0,0,1,2.523,2.343,11.9,11.9,0,0,0,4.687-2.884c2.163-2.343,3.966-3.966,4.867-3.966s3.966-.541,4.326,0a41.448,41.448,0,0,0,5.227,3.425s0,6.669-1.8,8.652a42.9,42.9,0,0,0-5.227,8.652c-.361,1.082-.9,7.21-1.8,7.03S350.322,376.992,350.322,376.992Z" transform="translate(243.287 271.924)" fill="#d7efff" stroke="#fff" stroke-width="0.685" fill-rule="evenodd"/>
      <path id="パス_2033" data-name="パス 2033" d="M274.3,384.626a54.982,54.982,0,0,0,7.751-3.425c1.8-.9,6.309-3.785,7.03-3.425s1.983,1.082,3.425-1.8l3.425-7.03c.9-1.8.541-3.785,1.8-3.425s8.652,1.622,9.553,2.524a16.763,16.763,0,0,0,5.588,3.245,26.5,26.5,0,0,0,7.751-.9c.721-.18,3.425-1.262,4.146-.9l2.524,1.262v7.03s-.361,1.262,2.163,1.262,5.047,2.884,4.506,3.425-.9,1.8.361,3.966,3.605,6.309,3.064,7.21.9,4.326.36,5.047-6.85-.9-8.292-.18c-4.146,1.622-7.21-1.262-10.094,1.082a7.03,7.03,0,0,1-7.571.9c-1.983-.9-6.309-4.326-8.652-5.227s-8.111-3.425-8.652-3.425c-3.425,0-5.768,2.884-5.227,1.8l-2.343,1.442c1.082,0-5.408.541-8.111-1.442a23.066,23.066,0,0,1-3.425-3.425S273.4,384.626,274.3,384.626Z" transform="translate(219.443 292.049)" fill="#d7efff" stroke="#fff" stroke-width="0.685" fill-rule="evenodd"/>
      <path id="パス_2034" data-name="パス 2034" d="M352.3,398.374a118.076,118.076,0,0,1-8.652,8.652,13.159,13.159,0,0,0-3.425,5.227,7.93,7.93,0,0,0,0,5.227c.9,1.442.541,12.438,0,12.077s-.361,1.8-3.425,3.425a58.589,58.589,0,0,1-12.077,3.425,19.828,19.828,0,0,0-5.227,5.227l-3.425,5.227-3.425,3.425-5.227-3.425s-2.163-3.064-1.8-3.425,2.343-.9,3.425-1.8,2.523-4.687,1.8-8.652-1.082-3.245,0-5.227a3.064,3.064,0,0,0,0-3.425s-3.966-1.442-3.425-1.8,1.983-2.343,3.425-3.425,2.524-4.687,3.425-5.227a38.93,38.93,0,0,0,5.227-3.425c1.983-1.8,5.768-2.884,5.227-5.227S319.5,400,319.5,400h-3.425l-1.8,3.425-1.8-8.652c-.36-1.442.721-4.326.18-3.966s-.9-7.39-.9-7.39l.361,1.442a7.751,7.751,0,0,0-2.343-4.687l-1.622-4.146,1.8-1.622,6.309,8.292s8.112,2.524,10.094,2.884,2.7,1.622,5.588,1.082,4.867,1.262,6.85-.541,6.85-5.227,6.85-5.227l3.425,1.8c-.541-.361,8.292,7.21,8.652,7.03s7.03,5.227,7.03,5.227v1.8h-1.8c-1.8,0-6.669,2.524-6.85,1.8S352.3,398.374,352.3,398.374Z" transform="translate(244.73 299.211)" fill="#d7efff" stroke="#fff" stroke-width="0.685" fill-rule="evenodd"/>
      <path id="パス_2035" data-name="パス 2035" d="M282.281,382.437s4.506-2.884,6.309-2.524a49.02,49.02,0,0,1,8.652,3.425l5.768,3.425,4.326,2.343c1.262.721,2.7-.361,3.605-.721a9.012,9.012,0,0,0,3.425-1.8c.721-.9,6.489,1.442,8.652,0a5.949,5.949,0,0,1,5.227,0h3.425a23.614,23.614,0,0,0,.721,6.85c.9,1.8-4.146,3.605-4.146,3.605a9.737,9.737,0,0,1-1.8,1.8c-.721.361-.18,7.21-1.8,6.67s-1.262-2.7-3.966-3.966l-4.687-2.524s-7.03.541-7.03,0,.18,1.8-.721,2.524,0,1.983-2.884.9-2.524-.361-6.85-1.8-6.669-3.605-6.85-5.227-1.262.361-3.425-1.8-2.524-.9-3.425-2.7a20.185,20.185,0,0,0-3.6-4.146Z" transform="translate(225.166 303.611)" fill="#d7efff" stroke="#fff" stroke-width="0.685" fill-rule="evenodd"/>
      <path id="パス_2036" data-name="パス 2036" d="M290.794,397.573l1.8-5.227-.36-4.146s1.082,3.605,7.931,6.129l4.687.541,3.605,1.622,1.622-4.326a33.887,33.887,0,0,1,5.948.361c.721.361,2.343-.721,4.506,1.442l3.425,2.7,1.622,2.343s-4.506.721-5.227,1.8-3.064,4.146-1.8,5.227,1.262,5.768,1.8,7.03a17.305,17.305,0,0,0,3.425,3.425,1.8,1.8,0,0,0-1.8,1.8c-.18,1.8-.361,4.867-1.8,5.227s-3.425-3.425-3.425-3.425a50.633,50.633,0,0,1-1.8-5.227c-.361-1.442-3.425-3.425-3.425-3.425a16.21,16.21,0,0,1-3.425,0,11.537,11.537,0,0,0-7.03,1.8c-1.622,1.442-6.129,2.163-6.85,3.425a26.319,26.319,0,0,0-1.8,5.227l-3.425,1.8s-3.425-.541-3.425-3.425-1.622-6.129-.18-8.292a3.605,3.605,0,0,0,.18-3.785s-.9-2.524-2.163-2.884-2.7-2.343-2.7-2.343l4.867-3.425Z" transform="translate(224.764 310.286)" fill="#d7efff" stroke="#fff" stroke-width="0.685" fill-rule="evenodd"/>
      <path id="パス_2037" data-name="パス 2037" d="M254.943,356.836s3.605-4.326,3.425-5.227,5.227-7.03,5.227-7.03,5.948,3.966,6.489,5.588,3.245-.721,5.588.361a20.365,20.365,0,0,0,3.966.9l5.408-5.768a8.652,8.652,0,0,0,3.785-3.605c1.442-3.244,7.03-4.146,7.03-4.146s2.343-1.442,2.343.721a17.3,17.3,0,0,0,1.262,5.948s.721,3.966,2.523,5.227,1.262,4.146,1.8,5.227,1.262,2.163,0,1.8-5.408,2.343-7.39,3.966-5.047,3.245-6.489,4.687-.541,2.7-1.262,5.768-.18,2.163.541,4.146,4.867,4.326,4.867,4.326,3.245,1.983,2.884,1.262.721-2.884,1.8-3.425,3.425,3.425,3.425,3.425v7.03a35.777,35.777,0,0,1-1.8,5.227c-.9,1.8,1.262.541,1.442,4.326s.361,6.669.361,6.669l3.785,3.064.541,2.163a2.343,2.343,0,0,1-1.262,3.245c-3.064,1.082-4.326,1.983-6.489-.361s-1.622-2.343-3.425-1.8-1.8-.361-3.425,0l-3.425.9s0-.721-3.966,1.983-3.064,2.343-3.064,2.343a14.42,14.42,0,0,1-1.8,7.03c-2.163,3.245-1.262,1.442-1.082,5.227a28.476,28.476,0,0,1-1.081,9.734,61.286,61.286,0,0,0-2.524,7.931c-.721,2.884-.721,2.163-5.588,3.966s-2.163,3.245-4.867,5.408-5.047,3.064-6.489,4.146-7.21-1.442-7.931-1.622-2.163,1.262-3.425,1.8-3.425-4.326-3.425-4.326.541-5.047,1.622-6.129c5.227-5.227,5.227-3.245,2.7-7.931-.9-1.622-6.489-2.524-5.047-4.687s2.7-3.966.721-6.309-1.8-.541-2.884-3.785-1.262-3.064-3.966-4.867a4.146,4.146,0,0,1-1.8-4.687,6.126,6.126,0,0,1,.36-2.343c.541-1.442,1.442-.541,3.966-1.8a43.459,43.459,0,0,0,5.588-4.146s2.163-3.245,1.8-4.687-2.343-2.163-2.343-2.163-.9.361-1.082-2.343,1.082-2.523,1.983-5.588.9-4.506,1.8-5.227,2.343-2.163,1.8-3.425-1.8-3.425-1.8-3.425l-1.081-2.163,2.884-5.408,5.227-4.506a35.5,35.5,0,0,0,1.262-5.047C254.582,362.6,254.943,356.836,254.943,356.836Z" transform="translate(187.613 269.548)" fill="#d7efff" stroke="#fff" stroke-width="0.685" fill-rule="evenodd"/>
      <path id="パス_2038" data-name="パス 2038" d="M268.741,419.319s.18,5.047,1.983,7.39a5.228,5.228,0,0,0,5.227,1.8c.9,0,1.8-9.373,1.8-10.455s3.966-4.506,3.425-5.227,1.082,3.064,1.8,3.425a50.128,50.128,0,0,0,5.408,1.262l1.442-2.884c.36-1.082,5.227,0,5.227,0l8.111-.36s-5.047-2.524-4.146-3.425a17.122,17.122,0,0,1,5.227-3.425c6.669-1.983,4.506-2.343,5.768-4.867a40.2,40.2,0,0,0,.18-6.129s-4.506-.9-5.948-2.884a43.627,43.627,0,0,0-4.146-5.047s1.081-4.687.18-4.326-8.832-.9-8.832-.9l-3.605-3.966-6.309,2.163-2.343-1.622a2.884,2.884,0,0,0-3.425-1.8,12.076,12.076,0,0,1-5.227,0l-7.03,3.425a1.8,1.8,0,0,0-1.8,1.8,18.2,18.2,0,0,1-1.8,7.03c-.361.721-1.983,2.524-1.8,3.425s0,2.7.721,3.425l2.884,3.245a10.094,10.094,0,0,0-.18,7.21c1.442,3.245,2.163,9.193,2.7,9.914a3.425,3.425,0,0,0,4.506,1.8Z" transform="translate(206.621 302.06)" fill="#d7efff" stroke="#fff" stroke-width="0.685" fill-rule="evenodd"/>
      <path id="パス_2039" data-name="パス 2039" d="M272.1,423.049c1.983,2.884,3.425,4.146,1.622,5.408a11.536,11.536,0,0,0-2.884,3.064,12.077,12.077,0,0,0-2.163,5.768c-.18,1.8-.541,1.081-2.884,1.983s-2.7,1.082-5.227.9-.9-1.442-4.146-1.262-5.948,3.245-7.03,2.343a26.686,26.686,0,0,1-3.425-3.966c-1.8-2.343-3.245-6.489-5.227-7.03a21.27,21.27,0,0,0-9.373,1.8c-1.8,1.081-3.785-.18-4.506,1.8s-4.687,2.524-3.966,5.047c1.442,5.408-1.262,7.21-1.262,7.21a15.5,15.5,0,0,1-3.425-1.8,14.062,14.062,0,0,1-3.425-3.425s-2.7-3.064-3.425-1.8a18.39,18.39,0,0,1-3.425,3.425s-2.884-5.047-1.8-7.03,3.785-3.425,3.425-5.227.541-3.245,0-4.326-1.8-1.262-1.622-2.7a3.424,3.424,0,0,0-.721-2.343,8.473,8.473,0,0,1-2.7-2.7c-.541-1.442-1.8-5.227-1.8-5.227a4.506,4.506,0,0,1,.721-4.146l2.884-2.884c2.163-2.163,1.8-2.7,5.588-2.343s3.785,1.082,5.948.18a18.025,18.025,0,0,1,5.768-1.442c3.245-.361,4.506-.541,5.227-1.8s2.524-1.622,1.8-3.425a32.442,32.442,0,0,0-3.425-5.227s-3.425-1.8-2.7-1.983-1.442-4.687-.721-4.867l1.983-.721s1.8-3.425,1.442-4.506,1.8-8.652,1.8-8.652l5.227-5.227a22.718,22.718,0,0,0,3.425,3.425c1.262,1.082,1.262,3.966,3.425,1.8a10.1,10.1,0,0,0,3.425-5.227,20.188,20.188,0,0,1,3.425-7.03c.9-.9,5.227,0,5.227,0a33.169,33.169,0,0,1,7.03,1.8,24.152,24.152,0,0,0,5.227,1.8,19.828,19.828,0,0,0,5.768-.541l3.245,6.309-1.262,2.163a2.163,2.163,0,0,0-1.622,2.343,5.948,5.948,0,0,1-1.262,4.506c-1.262,1.983-2.163,4.687-1.442,5.948a22.9,22.9,0,0,0,3.064,3.064l-1.262,3.785a9.374,9.374,0,0,1-3.425,3.425,21.273,21.273,0,0,1-6.669,2.7l-.36,2.524a5.047,5.047,0,0,0,1.8,5.227c1.442,1.082,2.7,1.442,3.425,3.425a7.931,7.931,0,0,0,2.884,4.687,3.605,3.605,0,0,1,.9,5.227s-2.343,2.524-.36,3.425Z" transform="translate(161.988 286.433)" fill="#d7efff" stroke="#fff" stroke-width="0.685" fill-rule="evenodd"/>
      <path id="パス_2040" data-name="パス 2040" d="M251.561,428.479c0,2.523.721-10.275,1.442-10.275a9.374,9.374,0,0,0,5.408-1.983l5.227-3.425s2.884-4.867,5.227-5.227,3.064-.36,3.425-1.8a48.141,48.141,0,0,0,1.8-5.227,47.926,47.926,0,0,1,1.8-5.227s.721-7.21,1.262-6.489,2.343,2.7,1.8,4.146c-1.262,4.326.36,5.408.9,7.571l1.442,6.489a5.047,5.047,0,0,0,2.163,3.245c1.262.541,2.343-.721,2.524.721s.18,5.768,1.262,6.309.361,1.622,2.524,2.163,1.983,1.082,3.605-.541,1.442-9.734,1.442-9.734l3.425-5.227a4.686,4.686,0,0,0,1.8,3.425c1.622,1.082,2.163.541,4.687,1.082s1.622-1.983,2.343-2.7,4.506.18,5.227,0,4.326.541,5.227,0a7.572,7.572,0,0,1,2.884-.361s1.622,4.146.541,5.588a4.506,4.506,0,0,0-.721,3.605c0,1.081.9,5.768.9,5.768l1.442,1.983s1.983.721,3.605,7.751a32.986,32.986,0,0,0,3.425,5.227s-.721,4.687-1.8,5.227-2.524,2.884-3.425,3.425-1.8,4.146-3.425,5.227-1.8,1.442-3.425,3.425-4.326,6.129-5.227,5.227-5.588-4.687-5.227-5.227-2.7-6.129-1.8-7.03,1.622-7.931,1.8-8.652,1.8-5.227,1.8-5.227l3.425-1.8v-5.227s3.245-1.442-1.8-1.8a87.881,87.881,0,0,0-10.455,0s-3.425.541-3.425,1.8-2.884.721-1.8,3.425-1.8,5.227-1.8,5.227l-7.03,1.8-1.8,3.425s.541.9-1.8,3.425-5.227,3.425-5.227,7.03,3.064,5.768,1.8,7.03-4.326-1.442-5.227-1.8-8.472-.9-10.455-1.8-4.506,2.343-7.03,1.8l-7.03-1.8a22.717,22.717,0,0,1-3.425-1.8s-1.983-1.8-1.8-3.425a15.509,15.509,0,0,0,0-3.425s-4.687,0-3.425,1.8-.541,9.013-1.8,7.03a27.219,27.219,0,0,1-2.163-5.047l.9-7.751a27.761,27.761,0,0,0,6.489-2.884c4.326-2.524,7.03-4.146,7.03-5.227S251.561,427.758,251.561,428.479Z" transform="translate(189.372 310.745)" fill="#d7efff" stroke="#fff" stroke-width="0.685" fill-rule="evenodd"/>
      <path id="パス_2041" data-name="パス 2041" d="M218.394,421.019s-.9.18-1.8-1.8-4.326-5.408-3.425-5.227,1.8-2.524,1.8-3.425-.9-4.867.18-5.588a36.206,36.206,0,0,1,3.425-3.064,9.373,9.373,0,0,1,5.227-1.8c.36.18,3.425-1.8,3.425-1.8s2.7-.541,3.425,0,2.343-.361,3.245,1.082,5.227,9.013,5.768,8.652.9,2.163,3.064.721a13.881,13.881,0,0,1,7.03-1.8c1.442,0,2.524,1.8,3.425,1.8a29.926,29.926,0,0,0,7.03-2.524c.721-.721,2.7,4.867,3.425,4.326a7.932,7.932,0,0,1,3.425-1.8,19.105,19.105,0,0,1,4.867,1.983l-.541,1.082-.361,4.506c-.361,4.326-.18,4.506-.541,8.652,0,.36-2.343,1.622-3.425,2.343s-3.785,2.524-5.047,3.425-5.588,1.442-5.408,2.343a9.553,9.553,0,0,1,0,3.425c-.36,1.622-.9,3.785,0,5.227s2.163,3.785,2.163,3.785-5.408-1.082-7.21-.361l-8.652,3.425a86.012,86.012,0,0,1-8.652,1.8,7.57,7.57,0,0,1,1.8-3.425c1.082-.9,8.111-2.884,8.652-3.425s3.425.361,3.425-1.8,2.163-2.163,0-3.425a12.977,12.977,0,0,1-3.425-3.425s-3.785.9-3.425,1.8-.36,4.506-3.425,3.425-7.03.18-7.03-1.8-1.442-5.768-1.8-5.227a9.2,9.2,0,0,1-1.8,1.8,4.146,4.146,0,0,0,0,3.425c.9,1.8,4.326,1.622,3.425,3.425a2.884,2.884,0,0,1-3.425,1.8c-.36-.361-3.245-2.163-3.425-3.425s-1.983-4.146-1.8-5.227,2.524-2.7,1.8-3.425-3.966-4.687-3.425-5.227,1.442-.18,1.8-1.8a11.175,11.175,0,0,1,1.8-3.425Z" transform="translate(170.446 318.204)" fill="#d7efff" stroke="#fff" stroke-width="0.685" fill-rule="evenodd"/>
      <path id="パス_2042" data-name="パス 2042" d="M76.4,492.249l8.652-7.03,7.03-1.8s3.785-4.146,3.425-3.425,1.983-3.425,3.425-3.425a9.732,9.732,0,0,0,5.227-1.8c1.8-1.262,5.227-1.262,5.227-3.425s-1.262-11.9,0-12.077,3.785.361,3.425-1.8,1.8-4.687,1.8-5.227,3.425-1.8,3.425-1.8l3.425-7.03,1.8,1.8c1.442,1.442,6.669,7.571,7.03,8.652a5.227,5.227,0,0,0,5.227,3.425c3.245-.18,6.129-3.785,7.03-3.425s7.21,2.163,8.652,1.8,7.03-5.227,7.03-5.227l3.245,1.622A38.217,38.217,0,0,0,164,459.983c.541,1.622-4.687.9-4.687.9a28.12,28.12,0,0,0-9.734,1.262,47.952,47.952,0,0,1-12.438,2.343c-2.163.18-1.622,1.082-3.064,3.425a36.956,36.956,0,0,0-4.146,9.013,9.733,9.733,0,0,1-2.343,4.326c-1.8,2.343-3.064,2.7-3.966,3.966a3.6,3.6,0,0,1-3.966,1.8,7.573,7.573,0,0,0-3.064,0,45.783,45.783,0,0,0,1.442,4.867,6.669,6.669,0,0,1,.361,5.588c-1.082,1.622-3.245.721-3.966,2.163s-.9,1.082-2.163,3.064-5.047,3.064-5.948,3.425-1.442,4.867-.9,6.129,3.966.18,4.326,1.082a36.952,36.952,0,0,1-1.622,6.85,16.222,16.222,0,0,1-7.03,0c-2.7-.9-5.227-5.227-5.227-5.227a1.623,1.623,0,0,1,0-1.8c.541-.9-1.8-5.227-1.8-5.227l1.8-3.425,3.425-3.425-1.8-3.425s-2.884,4.326-3.425,1.8a45.61,45.61,0,0,0-1.8-5.227v-3.425l1.8-3.425H91.9s-2.163-1.622-3.425,0-4.326,5.768-5.227,5.227-5.227,1.8-5.227,1.8Z" transform="translate(60.805 354.586)" fill="#d7efff" stroke="#fff" stroke-width="0.685" fill-rule="evenodd"/>
      <path id="パス_2043" data-name="パス 2043" d="M97.027,522.739H91.8l3.425-5.227v-5.227a30.647,30.647,0,0,0,1.082-3.064c.18-.721.541-3.966.541-3.966s-4.687.36-4.687-1.442.18-5.948,1.262-5.588,5.227-1.8,5.227-1.8,1.8-4.326,3.425-5.227a35.863,35.863,0,0,0,3.425-1.8c1.081-.721.18-5.588,0-5.227s-1.8-5.227-1.8-5.227h5.227l3.425-3.425,3.425-3.425,1.8-5.227L121,459.83c.721-1.262,1.983-3.605,3.425-3.425s9.734-1.082,10.455-1.8,10.455-1.8,10.455-1.8h5.227s4.326.18,5.227,1.8,7.03,5.227,7.03,5.227l3.425-3.425h3.425s-.361,5.768,1.8,7.03,5.588.721,5.227,1.8a29.561,29.561,0,0,0-.541,5.768c-.18,1.983-1.082,2.523,2.7,2.523l6.669.361s-2.7,3.605-3.605,5.227-2.7,5.588-3.425,7.03a10.815,10.815,0,0,0-1.8,5.227c.18,1.082-1.8,1.8-1.8,1.8s-.9.541-3.425-3.425-.9-4.146-3.425-7.03-4.506-2.524-5.227-3.425-1.8-3.785-5.227-3.425a14.6,14.6,0,0,1-7.032-1.8s-5.045,2.164-5.225,1.8-2.884.361-5.227,1.8-3.785,2.524-3.425,3.425-1.082.9-1.8,1.8-7.03,1.8-7.03,1.8a21.818,21.818,0,0,1-1.8,3.425c-.721.9-.541,0-.541,0a7.03,7.03,0,0,1,.541,1.8c.721,3.245,0,4.506-1.8,6.85s-4.326,3.605-5.227,5.227-1.622-.721-1.8,1.8.9,5.047-1.8,5.227-3.966,1.8-3.425,3.425.541,2.524,0,3.425a7.576,7.576,0,0,1-1.8,1.8s-1.262,2.523,0,3.425,6.85,4.867,5.227,5.227-9.373-1.442-8.652-1.8-2.7.36-3.425,1.8-5.227,0-5.227,0Z" transform="translate(73.164 362.13)" fill="#d7efff" stroke="#fff" stroke-width="0.685" fill-rule="evenodd"/>
      <path id="パス_2044" data-name="パス 2044" d="M121.868,443.633s6.129-.721,7.03-1.8,5.227-2.524,7.03-5.227,1.983,0,5.227,0,5.408,1.8,7.03,0a4.867,4.867,0,0,1,3.425-1.8s6.309,4.506,7.03,5.227a16.222,16.222,0,0,0,5.227,3.425,48.651,48.651,0,0,1,5.227,1.8l-1.8,5.227a25.06,25.06,0,0,0-3.245-3.245c-.541-.541-6.489,1.262-8.472,1.442s-3.605-.18-5.047,2.163a19.832,19.832,0,0,1-2.343,3.245l-4.506-1.262-1.8-1.082-6.85.9a13.16,13.16,0,0,1-3.064,2.7l-5.227,2.7-1.082,1.262-3.425-1.8s-2.163-3.425,0-5.227,4.146-5.227,3.425-5.227S121.868,443.633,121.868,443.633Z" transform="translate(96.812 347.684)" fill="#d7efff" stroke="#fff" stroke-width="0.685" fill-rule="evenodd"/>
      <path id="パス_2045" data-name="パス 2045" d="M175.513,444.988c-.721,1.983-5.047,5.047-3.425,6.85s2.524,1.983,3.425,3.425a16.042,16.042,0,0,1,1.8,5.227c.18,1.262.9,5.227,1.8,5.227s1.8,1.8,1.8,1.8-7.21,1.082-8.652,3.425-1.442,4.867-3.425,5.227-4.146,2.884-5.227,3.425-2.7,5.588-3.425,5.227a89.8,89.8,0,0,0-9.193-.36v-4.506a22.348,22.348,0,0,1,.361-4.146,21.632,21.632,0,0,1-5.047-1.262c-1.082-.9-1.442-6.309-1.8-6.489a7.392,7.392,0,0,0-3.425-.541s-2.7,3.785-3.425,3.425a24.336,24.336,0,0,1-6.129-4.326,13.7,13.7,0,0,0-2.163-1.983l-3.245-1.262-2.524-8.111a29.383,29.383,0,0,1,5.408-3.605c3.245-1.622,3.064-3.245,5.227-3.425s6.129-1.082,7.03,0,4.326,1.622,5.227,1.8,3.425-5.227,3.425-5.227h3.425c1.262-.541,8.652-1.8,8.652-1.8l3.425,3.425,1.8-5.227,1.8-1.8,7.03,3.425S176.234,443.185,175.513,444.988Z" transform="translate(98.685 351.376)" fill="#d7efff" stroke="#fff" stroke-width="0.685" fill-rule="evenodd"/>
      <path id="パス_2046" data-name="パス 2046" d="M68.077,467.573s6.85-1.983,7.03-3.425,2.163-5.768,3.425-5.227,4.867,2.524,5.227,3.425a47.947,47.947,0,0,1,1.8,5.227c.18,1.442-.541,4.146,0,5.227s2.7,3.966,0,5.227a30.281,30.281,0,0,1-5.227,1.8s-.361,1.622-1.8,1.8-4.867,4.506-3.425,5.227a34.8,34.8,0,0,0,5.227,1.8l5.227-1.8,1.8,1.8c.9.721,2.884.9,3.425,0s.18-4.687,1.8-3.425,3.425,2.7,3.425,3.425-3.425,3.064-3.425,5.227-.361,2.524,1.8,3.425,2.884-1.442,3.425,1.8-1.262,3.064,0,5.227,2.343,4.506,3.425,5.227,1.442.9,1.8,1.8-2.343,4.506-3.425,5.228l-2.884,1.442a3.785,3.785,0,0,1-3.966-.9c-.721-1.082-1.262-2.524-2.163-2.163a49.724,49.724,0,0,0-4.687,3.245,72.259,72.259,0,0,0-8.652,1.8c-1.8.541-1.8-.18-2.884-1.622s-2.163-4.146-2.163-3.6-3.425,3.425-3.425,3.425-2.7-.721-3.425-1.8-.361.18-1.8-3.425-2.884-2.884-3.425-7.03,1.082-5.227-1.8-8.652-1.983-4.867-2.7-5.047a43.456,43.456,0,0,0-5.948,0s-1.983-3.064-1.8-.541a46.506,46.506,0,0,0,1.8,7.39s2.884.361,1.983,1.082-5.948,5.588-7.21,4.146a46.607,46.607,0,0,1-3.425-5.227v-8.652s-2.343-1.983-1.8-3.425l1.983-4.506s-2.163-2.163.9-4.326,1.442-.541,4.326-3.245,2.7-3.966,3.785-3.785,6.489.18,6.489.18l1.082-.541.541-4.687h7.03Z" transform="translate(30.914 367.005)" fill="#d7efff" stroke="#fff" stroke-width="0.685" fill-rule="evenodd"/>
      <path id="パス_2047" data-name="パス 2047" d="M7.432,479.426c1.082,0,3.245.9,3.425-1.8s-2.524-4.867-1.8-5.227-2.343-.9,0-3.425,5.047-5.948,5.227-5.227,4.146.721,3.425,1.8,1.262,4.146,1.8,5.227.361,3.064,1.8,1.8a5.227,5.227,0,0,1,3.245-1.442,5.047,5.047,0,0,0,1.983,1.442c1.082.36,4.326-2.163,4.326-2.163l1.262-1.262s4.326,1.983,4.867,3.605a6.85,6.85,0,0,0,3.425,3.425c.9.18,3.966-3.785,3.966-3.785s2.884.361,3.966,1.983a5.047,5.047,0,0,1,.721,3.605c0,1.622-2.524,2.163-4.146,3.785s-3.785,1.262-5.047,3.064L37.9,488.078s-.18,1.622-1.262,1.983-.9-.18-2.163-.361a7.391,7.391,0,0,1-2.7-1.442s.18,0-1.8,1.8-3.605-.541-3.425,1.8-1.082,2.7,0,3.425,2.884,1.082,3.425,3.425a4.687,4.687,0,0,1,0,3.425,6.669,6.669,0,0,0-4.687-1.8c-2.7.18-1.8.541-3.966-1.622a16.223,16.223,0,0,1-3.425-5.227L15.724,489.7a24.513,24.513,0,0,1-3.966-1.082,14.6,14.6,0,0,1-4.867-5.047S6.17,479.426,7.432,479.426Z" transform="translate(4.856 370.835)" fill="#d7efff" stroke="#fff" stroke-width="0.685" fill-rule="evenodd"/>
      <path id="パス_2048" data-name="パス 2048" d="M33.3,503.567c1.082-.541,6.309.36,8.652,1.8s2.343,2.884,3.425,3.425,1.442,3.605,0,5.227-8.652,5.227-8.652,5.227-6.309.541-5.227-1.8,3.785-1.442,3.425-3.425a28.12,28.12,0,0,0-1.8-5.227s-.9-2.343-1.8-1.8-.18,2.7-3.425,3.425-4.867.721-5.227,1.8-4.506,6.85-5.227,7.03-5.047,6.85-5.227,3.425,1.622-4.867,1.8-7.03,1.622-4.506,0-7.03-3.785-3.785-5.227-5.227-6.129-4.867-5.227-5.227,3.785-5.047,3.785-5.047v-3.425a29.962,29.962,0,0,0,3.425,3.425c.9.541-.361.361,1.8,3.425s4.146,4.326,3.425,5.227,1.442.541,1.8,1.8,2.524,2.7,3.425,1.8,4.867,0,3.425-3.425-4.146-3.966-3.425-5.227-1.8-3.425-1.8-3.425S18.7,490.048,16,489.868a3.966,3.966,0,0,1-3.425-1.8,14.787,14.787,0,0,0-3.425-1.8,14.781,14.781,0,0,1-3.425-1.8,1.2,1.2,0,0,1-1.8,0c-1.082-.9-3.966-2.884-3.605-3.605a24.16,24.16,0,0,0,1.8-5.227,37.138,37.138,0,0,1,1.8-5.228l3.425,1.8,5.227,1.8s-1.442,3.244,0,5.227A18.2,18.2,0,0,0,16,482.657l3.425,1.262a1.983,1.983,0,0,1,1.8.541,23.616,23.616,0,0,1,2.163,5.047,20.908,20.908,0,0,0,4.687,5.408,16.037,16.037,0,0,1,3.425,0l3.425,1.8a1.442,1.442,0,0,0,0,1.8C35.644,499.421,32.219,503.927,33.3,503.567Z" transform="translate(-0.283 376.255)" fill="#d7efff" stroke="#fff" stroke-width="0.685" fill-rule="evenodd"/>
      <path id="パス_2049" data-name="パス 2049" d="M33.132,531.638a6.849,6.849,0,0,1-1.8,5.227c-2.163,1.8-4.687,1.442-5.227,3.425s-1.8,5.227-1.8,5.227c4.146.541,3.785.721,7.03,0a19.287,19.287,0,0,0,5.227-1.8c1.622-.721,2.524,1.082,3.425,1.8s-.9.541,3.425,1.8,6.129,3.425,8.652,1.8,1.983-3.785,5.227-3.966a9.733,9.733,0,0,0,5.768-1.442,23.252,23.252,0,0,0,2.884-4.687s-.721-3.605-.9-4.867a51.2,51.2,0,0,0-1.442-5.948,16.22,16.22,0,0,0-2.884-5.227,22.632,22.632,0,0,1-1.8-3.245l4.506-4.326L67.2,511.63a13.7,13.7,0,0,0,2.884-4.506l2.884-4.867,1.8-3.425-1.8-3.425s-1.983-2.7-1.8-3.425a26.318,26.318,0,0,0,0-5.227c-.18-2.163-.721-1.8-1.8-3.425s-1.983-5.227-3.425-5.227-5.047.9-5.227,0-1.8-1.8-1.8-1.8l1.8,8.652s3.245-.18,1.622,1.442a16.225,16.225,0,0,1-3.966,2.884c-.9.721-1.8,1.622-2.343,1.262s-3.064-5.408-3.966-5.588a27.413,27.413,0,0,1-4.506-.361,3.605,3.605,0,0,1-2.343-1.442c-1.082-1.082-1.442-2.884-2.7-2.163a19.823,19.823,0,0,1-4.146,1.8,5.949,5.949,0,0,0-3.966,2.7c-.541,1.442-.541.18-2.7,3.785s-2.343,3.966-2.343,4.326a14.42,14.42,0,0,0,3.425,5.227c1.8,2.163,1.8,2.524,3.425,3.425s2.524,1.622,1.8,3.425-.361,3.966-1.8,5.227-8.652,5.227-8.652,5.227,6.669,1.8,8.652,0,5.588-4.506,5.227-3.425a7.03,7.03,0,0,1-1.8,3.425c-1.262,1.262-3.425,1.983-3.425,3.425a19.285,19.285,0,0,1-1.8,5.227C34.214,526.231,33.132,531.638,33.132,531.638Z" transform="translate(18.992 380.99)" fill="#d7efff" stroke="#fff" stroke-width="0.685" fill-rule="evenodd"/>
      <path id="パス_2050" data-name="パス 2050" d="M21.5,506.527a4.867,4.867,0,0,1,1.8-3.425,9.013,9.013,0,0,1,3.425-1.8h5.227v3.425L28.53,508.15a27.214,27.214,0,0,1-5.227,1.8Z" transform="translate(16.745 401.054)" fill="#d7efff" stroke="#fff" stroke-width="0.685" fill-rule="evenodd"/>
      <path id="パス_2051" data-name="パス 2051" d="M14.558,509.023a5.768,5.768,0,0,1,1.8-5.227,30.649,30.649,0,0,1,5.227-3.425,1.8,1.8,0,0,0,1.8,0c.721-.541,1.082.361,1.8,1.8S27.356,505.6,27,507.4a38.829,38.829,0,0,1-1.8,5.227s-.9,3.425-1.8,3.425-2.163,1.622-3.425,3.425a17.123,17.123,0,0,1-5.227,3.425s-2.343-2.7-1.8-3.425a32.087,32.087,0,0,0,1.8-5.227Z" transform="translate(9.807 400.181)" fill="#d7efff" stroke="#fff" stroke-width="0.685" fill-rule="evenodd"/>
      <path id="パス_2052" data-name="パス 2052" d="M74.836,559.82s1.983,7.571,0,8.652S70.871,571,71.411,571.9a9.012,9.012,0,0,1,0,5.227c-.541,2.343.721,4.146-1.8,5.227s-8.292-2.163-8.292-2.163a23.611,23.611,0,0,1-.361-4.687c0-1.8,0-8.652,0-8.652l-8.292-3.785s.361-.36-.361-1.983a13.341,13.341,0,0,0-4.146-3.245l-4.506.361,1.8-5.227-6.309-7.21-1.622-4.867L35,537.289l3.425,1.8,4.506.361,4.146-3.785c1.262-1.262,5.227.361,7.03-1.8s4.326-4.506,3.425-7.03-2.884-12.257-3.425-12.077-3.425-5.227-3.425-5.227a39.652,39.652,0,0,1,3.425-3.425c.9-.721,5.047-4.326,5.227-5.228a40.555,40.555,0,0,1,3.425-5.227c.9-1.8,1.8-3.425,1.8-3.425l1.8-3.425s2.7,4.687,3.425,4.687,1.442,1.081,2.343.36a34.408,34.408,0,0,0,2.7-3.245l3.425,5.408a76.618,76.618,0,0,1,10.455-1.8c1.622.18,4.867-3.785,5.227-3.425s2.343,3.425,3.425,3.425,3.785-1.082,3.245-.361-3.785,7.21-4.867,7.391-2.884,2.524-3.425,3.425-2.7,5.408-3.425,5.227,1.082,2.884,0,3.425-5.047,6.129-5.227,8.652-1.442,3.244-1.8,6.85-3.966,7.751-3.425,10.455-1.262,2.884-1.8,5.227S74.836,559.82,74.836,559.82Z" transform="translate(27.579 391.022)" fill="#d7efff" stroke="#fff" stroke-width="0.685" fill-rule="evenodd"/>
      <path id="パス_2053" data-name="パス 2053" d="M21.97,571.226c-.541-.36-1.082-5.768-1.8-7.03a43.638,43.638,0,0,0-3.425-3.425s-.721-2.343,1.8-1.8l7.03,1.8a7.21,7.21,0,0,1,0-5.227c1.082-2.163,3.064-1.442,3.425-3.425a26.5,26.5,0,0,0,0-5.227c0-.721-3.605-4.326-3.425-5.227s-2.163-2.884-3.425-3.425a16.584,16.584,0,0,1-3.425-3.425s3.064-2.163,3.425-3.425.721-4.506,0-5.227l-1.8-1.8v-3.425l-1.8-3.425a5.766,5.766,0,0,0,3.425,0,18.933,18.933,0,0,1,5.227-1.8h3.425l4.326.361,5.408-1.081S43.781,513,44.5,513.9a15.141,15.141,0,0,0,5.227,3.425l2.343,3.245c.9,1.262,0,1.442,1.082,3.785a14.422,14.422,0,0,0,3.425,5.228L60,533.011l-1.8,5.227s4.687-.9,5.227,0,3.064,2.343,3.425,3.425a4.09,4.09,0,0,0,2.524,2.343l2.7,1.262,3.425,1.622v7.03a28.838,28.838,0,0,0,.36,6.489c.18.721-4.506-1.262-5.588-1.262s-3.605.9-3.425,1.8a20.885,20.885,0,0,1,0,3.425s3.245,1.081,3.425,1.8a36.586,36.586,0,0,1,0,6.85h-1.8c-1.622,0-1.262-.361-3.425,1.8a37.86,37.86,0,0,1-5.227,5.228c-2.163,1.622-3.425,0-3.425,0l-3.425,1.8-3.245,3.245a7.749,7.749,0,0,1-3.425,0c-.721-.36,3.785-7.571,3.425-7.03h0a28.846,28.846,0,0,0,1.8-3.605c.18-.9,1.8-5.227,1.8-5.227v-7.03a9.012,9.012,0,0,1-1.8-3.425,17.845,17.845,0,0,1,0-5.227H44.5v-5.047h5.227a3.245,3.245,0,0,0,1.8,1.8c1.262.36,1.8-1.8,1.8-1.8l1.8-3.425s-2.7.541-3.425-1.8a7.21,7.21,0,0,0-3.425-3.425l-3.425,1.8s-1.983,7.571-1.8,8.652-1.8,3.425-1.8,3.425-2.524-.721-1.8,1.8a51.523,51.523,0,0,0,1.8,5.227c.361.9-1.983,1.442,0,3.425s.361,5.047,1.8,5.227,3.605,1.081,3.425,1.8,1.262,2.343,0,3.425-6.129,2.343-7.03,1.8-1.8-3.425-1.8-3.425-.361-4.146-1.8-3.425a53.176,53.176,0,0,1-8.652,1.8,20.727,20.727,0,0,1-5.227-.18Z" transform="translate(12.85 410.981)" fill="#d7efff" stroke="#fff" stroke-width="0.685" fill-rule="evenodd"/>
      <path id="パス_2054" data-name="パス 2054" d="M339.4,299.907c.361.541.9-8.111,1.8-8.652s.721-4.326.721-4.326l4.326-6.129a53.174,53.174,0,0,1,5.227,3.425,15.142,15.142,0,0,1,4.867,7.03c.541,1.983,1.442,1.8,3.064,1.622h2.343l1.8,5.227s-2.343,5.768-5.227,7.03a28.122,28.122,0,0,0-5.227,3.425c0-.361-2.163,5.768-2.524,6.489a9.013,9.013,0,0,0-.541,5.948s.541,5.768,1.262,6.489,5.227,3.244,4.326,3.064-6.489,4.506-6.129,5.588-3.966,6.669-3.425,8.652,1.8,4.867,0,5.227-10.455,3.425-10.455,3.425-7.21,1.082-6.85,1.8.541,7.751,0,8.652-3.605,2.524-3.425,3.425a10.635,10.635,0,0,0,1.8,5.227c1.081,1.8,0,6.309,0,6.85s-1.082,1.082-1.8,1.8a91.2,91.2,0,0,1-8.652,3.425l-3.425,7.03s0,.9-3.425,3.425-4.867,3.785-5.227,5.227-7.571,1.983-7.03,1.8-.721-2.343-.541-4.687a4.5,4.5,0,0,0-.541-1.442,12.076,12.076,0,0,1-2.343-4.146c-.9-2.524-1.8-2.884-1.8-5.227s-.361-4.326-1.8-3.425-6.309,1.8-7.03,3.425-3.966,3.966-5.227,5.227-4.146,5.588-5.227,5.227-5.227-2.343-5.227-1.8-3.425,2.343-3.425,1.8a19.459,19.459,0,0,0-1.8-3.425l-3.425-1.8-1.8-1.8-3.966,4.867-4.687,7.21a13.516,13.516,0,0,1-1.8-3.425,18.387,18.387,0,0,1-.9-7.931l-2.524-2.524-1.8-1.8L248.73,383c1.442-.541,10.094-2.343,10.455-3.425s5.227-5.227,5.227-5.227l5.227-1.8c.9-.36,7.571,1.442,8.652,0a55.348,55.348,0,0,1,7.03-8.652c3.425-3.245,8.472-3.425,8.652-5.227a11,11,0,0,1,3.425-7.03c2.884-2.884,3.785-6.129,5.227-7.03s2.343-4.687,1.8-5.227,1.8-10.455,1.8-10.455a68.491,68.491,0,0,1,10.455-7.03c3.425-1.442,7.751-.541,10.455-3.425s7.21-4.687,8.652-7.03,3.605-4.687,3.425-5.227S339.037,299.366,339.4,299.907Z" transform="translate(193.465 224.093)" fill="#fff" stroke="#0066ad" stroke-width="0.685" fill-rule="evenodd"/>
      <path id="パス_2055" data-name="パス 2055" d="M261.173,304.182s5.227-3.425,5.227-5.227,3.245-3.785,3.425-5.227a23.071,23.071,0,0,1,3.425-5.227s1.442,7.21,0,10.455a16.4,16.4,0,0,0-1.8,7.03c.36,0,1.8,1.082,1.8,1.8s4.867-2.524,5.227-1.8a30.3,30.3,0,0,1,0,5.227s-2.884.361-3.425,1.8-1.081,4.867-3.425,7.03-5.768,5.768-7.03,5.227-5.227-1.8-5.227-1.8,3.245-3.425,3.425-5.227.9-1.442,1.8-3.425-.36-5.768,0-5.227-3.425,3.425-3.425,3.425-.9,1.8-1.8,0,2.343-5.227,1.8-5.227S261.173,304.182,261.173,304.182Z" transform="translate(207.519 230.272)" fill="#fff" stroke="#0066ad" stroke-width="0.685" fill-rule="evenodd"/>
      <path id="パス_2056" data-name="パス 2056" d="M221.1,350.043v-4.687s.18-1.082,3.245-3.966a7.931,7.931,0,0,1,7.03-1.8l-1.8,7.03a13.336,13.336,0,0,0,0,3.425c.18,1.8,3.785,3.966,5.227,5.227a9.553,9.553,0,0,0,7.03,1.8,7.751,7.751,0,0,0,5.227-3.425c1.442-1.983,3.425-2.7,3.425-5.227s-.541-4.326,1.8-5.227a24.325,24.325,0,0,0,5.227-3.425h5.227a19.1,19.1,0,0,0,3.425,3.425c.721.361.721,3.785.721,3.785a7.029,7.029,0,0,0,1.081,4.867,7.751,7.751,0,0,1,1.8,5.227c0,5.588-1.8,10.455-2.343,11s-5.047,3.966-5.768,6.309-.9,3.785-3.966,3.605-5.768.18-7.571-1.262a13.338,13.338,0,0,0-6.309-2.163c-2.163-.361-5.948-1.262-6.489-.18s-1.622,1.082-1.8,1.983a26.137,26.137,0,0,1-4.687,9.553c-1.622,1.8-2.163,1.983-4.326-.9a24.155,24.155,0,0,0-3.425-3.425s-5.227,5.768-5.227,5.227-.361-6.85-.361-7.571c-.541-6.309-1.622-11.536-1.262-13.339s1.082-4.867,1.082-4.867a20.546,20.546,0,0,0,1.622-4.506l2.343-1.8Z" transform="translate(172.968 271.114)" fill="#fff" stroke="#0066ad" stroke-width="0.685" fill-rule="evenodd"/>
      <path id="パス_2057" data-name="パス 2057" d="M200.6,401.886s9.734-7.571,10.455-8.652,4.687-5.768,5.227-7.03,4.506-10.455,5.227-10.455,1.8-3.425,3.425-7.03,3.966-4.146,3.425-5.227-1.8-8.652-1.8-8.652a10.093,10.093,0,0,0,0-3.425c-.361-1.8-3.966-6.129-3.425-7.03a32.09,32.09,0,0,0,1.8-6.85c.18-1.262,2.163-5.768,1.8-5.227h-.18s.541-.9,3.605-1.8,3.785-.541,7.03-1.8a67.237,67.237,0,0,0,7.03-3.425c1.983-.9,6.489-4.506,8.652-5.227s4.326-2.343,5.227-1.8a29.956,29.956,0,0,1,3.425,3.425,4.146,4.146,0,0,1-1.8,3.425l-5.227,3.425a5.415,5.415,0,0,1-3.425,6.85,7.391,7.391,0,0,1-3.425,0,3.064,3.064,0,0,1-1.8,3.425,7.39,7.39,0,0,0-3.425,3.425h-5.227l-1.8,1.8-1.8,3.425,1.8,1.8s6.129.9,5.227,0,0-3.425,0-3.425l3.425,1.8v3.425l1.8,3.425-1.8,1.8h-3.425a9.554,9.554,0,0,0-5.227,3.425,9.193,9.193,0,0,0-1.8,5.227,42.726,42.726,0,0,0,0,6.129l-1.622.721c-.721.361-3.966,9.013-3.425,10.455s1.8,19.107,1.8,19.107a11.356,11.356,0,0,1-.361,2.884c-.36.721-1.983,5.768-1.442,6.85a16.044,16.044,0,0,1,0,4.867l-3.425,1.262s-3.785,1.442-5.227-1.8a12.078,12.078,0,0,0-1.8-3.425s-10.635-.9-10.455,0-2.163-.18-3.425-1.8a45.429,45.429,0,0,1-3.425-5.227Z" transform="translate(160.481 254.06)" fill="#fff" stroke="#0066ad" stroke-width="0.685" fill-rule="evenodd"/>
      <path id="パス_2058" data-name="パス 2058" d="M229.052,429.217s-3.605,4.146-3.425,5.227.721,4.326,0,5.227-.9,3.064,0,3.425,1.262.9,3.425,3.425,2.524,1.262,5.227,3.425,3.966,3.425,5.227,3.425,5.768.36,5.227,1.8.9,1.622,0,3.425-4.146,4.146-3.425,5.227a4.146,4.146,0,0,1,0,3.425l-3.425-1.8c-1.262-.721-4.867-3.064-5.227-1.8s-4.326,3.785-7.03,5.227-4.146.18-7.03,1.8-5.047,1.983-5.227,3.425-1.983,3.064-1.8,3.425a32.62,32.62,0,0,1,0,5.227c0,.721.18,5.408-1.8,5.227s-5.047.361-5.227,1.8-2.343,2.884-3.425,5.227-1.262,4.506-1.8,5.227,0,3.425,0,3.425l-3.425,1.442c-.9,0,.721-2.163-2.163-5.047s-4.506-2.7-4.687-3.244a21.189,21.189,0,0,1,0-3.425c0-1.262,2.7-4.687,3.425-5.227s1.081.541,3.425-1.8,1.983-3.425,3.425-3.425,3.605-.9,3.425-1.8-3.064-7.931-1.8-8.652,3.966-2.884,3.425-3.425a11.538,11.538,0,0,1-1.8-3.425,44.347,44.347,0,0,1-1.8-5.227c-.18-1.442-.36-4.146.541-3.605s6.85,0,6.309-1.442,1.082-2.524,0-3.425a47.951,47.951,0,0,0-5.768-3.245c-.9-.541-3.605-.361-2.884-1.983,2.524-5.948.721-5.408,1.8-5.227s-3.425-2.523-3.064-3.064-.541-2.343-.361-3.785a7.571,7.571,0,0,1,3.605-4.326,38.767,38.767,0,0,0,4.506-1.442c.36-.361-1.082-2.7,5.227-1.081,2.343.541,6.669-6.129,6.669-6.129a7.21,7.21,0,0,0,.9-2.884,40.381,40.381,0,0,1,.721-4.867,33.534,33.534,0,0,1,.541-5.408c.18.18-.541-1.442-1.262-1.622s3.785-3.966,3.785-3.966l1.082.361,4.146,4.326s.721,0,3.064,1.983a22.141,22.141,0,0,1,2.884,2.7l2.163,3.245c.541.721,0,3.425,0,3.425s-2.7,2.163-3.425,1.8-1.262.721-1.8,1.8a64.714,64.714,0,0,0-1.082,6.669Z" transform="translate(151.135 322.083)" fill="#fff" stroke="#0066ad" stroke-width="0.685" fill-rule="evenodd"/>
      <path id="パス_2059" data-name="パス 2059" d="M211.53,373.252a5.408,5.408,0,0,1,1.8-3.425,73.817,73.817,0,0,1,7.03-5.227,10.456,10.456,0,0,0,0,3.425,15.681,15.681,0,0,0,3.425,5.227c2.343,2.524,2.343,1.622,5.227,1.8h7.03a1.983,1.983,0,0,1,2.524,1.262,14.963,14.963,0,0,0,2.7,3.966h3.064l.721,4.867,3.425,3.064a5.588,5.588,0,0,0,1.8,2.7c1.262.721.541,2.7.541,2.7a3.785,3.785,0,0,1-3.064,3.425,71.743,71.743,0,0,1-7.931,1.262s-2.884,1.8-4.326,1.082-6.489-.9-7.03,0-4.146,3.425-3.425,3.425h.18s-1.442-.18-1.8,1.8,1.262,7.39.18,4.687-4.867-3.425-5.047-4.506-3.785,1.442-3.785,1.442,2.163,2.7,1.8,3.425a12.257,12.257,0,0,1-5.227,5.227c-2.524,1.082-5.588.721-5.227,1.8s-.541.721-1.8,1.8a17.306,17.306,0,0,0-3.425,3.425,17.3,17.3,0,0,1-3.425,3.425c-1.262.9-1.983,2.524-2.343,1.983s-5.588,3.064-6.309,1.622-.9-4.146-3.425-3.425-3.425,0-3.425,0l-3.425-3.425s-2.7-2.884-1.983-3.966-1.262-1.8.18-2.884,4.326,3.785,5.227,3.425,3.064-4.326,3.425-3.425,5.227,1.8,5.227,1.8-1.262.721,1.8-1.8,3.785-.9,5.227-1.8-1.622-3.605,1.8-3.425,4.687,1.622,5.227,0-1.082-7.39,0-6.85,5.047.361,5.227,1.8.9,5.408,1.8,1.8,1.8-5.588,1.8-7.03-3.064-4.326-3.425-5.227-3.245,1.622-3.425-1.8-.541-3.785-1.8-5.227-2.343-2.524,0-3.425,3.966-1.082,5.227-3.425a28.3,28.3,0,0,0,1.442-7.391Z" transform="translate(140.899 291.346)" fill="#fff" stroke="#0066ad" stroke-width="0.685" fill-rule="evenodd"/>
      <path id="パス_2060" data-name="パス 2060" d="M187.822,430.141c.18-1.082,1.262-4.146,1.8-7.03a16.224,16.224,0,0,0,0-5.227l-3.425-1.8,1.8-3.425a17.313,17.313,0,0,1,0-3.425c.18-.721,3.425-2.884,5.227-5.227a24.157,24.157,0,0,1,5.227-4.506s-.36-1.081,3.425-1.8a10.817,10.817,0,0,0,4.506-2.524,4.687,4.687,0,0,0,1.081-6.85c-.541-.721,3.064-1.622,3.064-1.622s4.867,4.506,5.227,5.227,1.622,1.983,1.8,3.425,0,.9,1.8,1.8,1.983,5.227,1.983,5.227,1.983.9,1.442,1.8,0,3.425,0,3.425a4.867,4.867,0,0,1-1.8,3.425c-1.8,1.442-1.622.361-1.983,2.884a6.67,6.67,0,0,0,1.983,5.768c.9.361,2.163.721,1.8,3.425s-1.8,10.455-1.8,10.455l-3.064,4.146-3.785,2.884s-4.687-1.262-5.227,0-4.326,2.343-4.326,2.343a7.393,7.393,0,0,0-3.245.9c-.361.18-3.425-.721-4.867-.541a3.064,3.064,0,0,1-3.425-1.983s-2.7-.18-3.245-.721.9-1.262.36-3.785a15.321,15.321,0,0,1-.36-4.867S187.642,431.223,187.822,430.141Z" transform="translate(148.924 309.082)" fill="#fff" stroke="#0066ad" stroke-width="0.685" fill-rule="evenodd"/>
      <path id="パス_2061" data-name="パス 2061" d="M161.486,410.938l2.524-2.7c1.8-1.983,5.227-2.884,4.867-5.408s-.541-3.785-2.523-3.064a34.786,34.786,0,0,0-5.047,3.245l-1.082-3.605a36.586,36.586,0,0,0,.18-5.948c-.36,0-.541-1.262,1.262-1.8a22.713,22.713,0,0,0,7.21-2.524c2.524-1.622,3.605-.9,5.227-1.8s5.227-3.425,5.227-3.425a4.146,4.146,0,0,0,1.8,3.425c1.983,1.442,5.408,2.163,3.425,3.425s-5.227-1.442-5.227,1.8-1.442,5.768,0,7.03,2.7,2.7,3.425,1.8l3.425-3.425c.721-.721,3.425,0,3.425,0a4.506,4.506,0,0,0-.361,3.064,7.751,7.751,0,0,0,2.524,5.948c1.262,1.442,1.082,2.523,3.064,3.064a15.139,15.139,0,0,0,5.227,0c.9,0,2.163,3.785,2.163,3.785l6.489-2.163v3.064l-1.622,3.966,3.425,1.8A19.107,19.107,0,0,1,210.7,425c-.361,4.326-2.163,6.129-2.163,7.21s1.081.721,1.983,2.163-.721,1.983,0,3.425a10.817,10.817,0,0,1,0,5.227,12.256,12.256,0,0,1,3.605,1.442c3.785,2.163-.361.361,1.082,1.082l8.292.721a7.029,7.029,0,0,0-2.7,3.605c-.36,1.983,1.8,5.047-1.8,3.425s-7.21,1.983-8.652,1.8a5.047,5.047,0,0,1-3.425-1.8c-1.082-1.262-2.7-1.262-3.425-5.227a13.519,13.519,0,0,0-3.425-7.03,4.146,4.146,0,0,0-2.7-1.622,15.138,15.138,0,0,1-4.326,0c-1.262-.361-5.227-4.867-6.309-5.588s.18-3.244-.721-4.687a6.67,6.67,0,0,0-3.425-3.425,18.929,18.929,0,0,0-5.227-1.8c-.9,0-.36-.541-2.524-1.262a28.84,28.84,0,0,1-5.047-2.163,32.627,32.627,0,0,1-8.292-7.21Z" transform="translate(128.033 306.835)" fill="#fff" stroke="#0066ad" stroke-width="0.685" fill-rule="evenodd"/>
      <path id="パス_2062" data-name="パス 2062" d="M187.56,436.8v-2.163a21.809,21.809,0,0,0-.18-6.489,16.764,16.764,0,0,1-.18-6.309V419.5s1.262,4.506,4.146,5.948,3.425.9,5.408.18a23.07,23.07,0,0,1,3.785-1.262s3.966-.361,4.506.721a3.786,3.786,0,0,0,.9,1.442,5.207,5.207,0,0,0,2.343,1.8l-1.622,6.309s.18.36,1.8.541a23.072,23.072,0,0,1,7.21,3.966l-.361,3.064a3.6,3.6,0,0,1-3.425,1.8c-2.343,0-3.605-1.262-3.425,1.8s1.082,4.146,1.082,5.408a16.941,16.941,0,0,0,1.8,4.326,1.8,1.8,0,0,1-.36,2.163c-1.082.9-3.064,1.622-3.064,3.245s1.983,6.309,1.983,7.391-3.785.18-4.867,2.163a9.373,9.373,0,0,1-5.588,4.687c-1.262.18-3.245,4.146-3.245,4.146l-9.013-.721s-2.884-.541-3.425-1.8a22.172,22.172,0,0,1-1.8-7.03c-.541-3.785-2.524-7.931-1.8-8.652s1.983-3.605,3.245-3.966l5.408-1.262s-3.785-5.588-3.425-6.85.721-3.064.721-3.064a10.455,10.455,0,0,0,1.442-2.7A40.382,40.382,0,0,0,187.56,436.8Z" transform="translate(143.959 335.406)" fill="#fff" stroke="#0066ad" stroke-width="0.685" fill-rule="evenodd"/>
      <path id="パス_2063" data-name="パス 2063" d="M169.245,455.462a7.751,7.751,0,0,0,5.227-1.8c2.343-1.983,3.425-1.262,5.227-5.227s3.605-2.343,3.425-5.227,0-5.227,0-7.03v-5.227a11.537,11.537,0,0,1-.541-5.408,13.158,13.158,0,0,0,.541-4.867c-.18-1.082.18-2.7,0-4.687a13.339,13.339,0,0,0-1.442-4.687l1.622.541s3.785,5.408,5.227,5.227h5.227a23.252,23.252,0,0,1,4.326,5.588,31.724,31.724,0,0,1,.541,6.309,15.139,15.139,0,0,0,.18,4.326,6.31,6.31,0,0,1,.541,3.785c-.18,2.523-.361,4.867-.361,5.948s.541,6.489.541,6.489l-2.163,3.966h-7.03l-3.064.361s-3.245,2.884-4.506,2.884l-3.966.361a25.054,25.054,0,0,1-5.047,0,6.85,6.85,0,0,0-5.047,1.442c-.721.361-2.7-1.622-2.7-1.622Z" transform="translate(132.713 328.825)" fill="#fff" stroke="#0066ad" stroke-width="0.685" fill-rule="evenodd"/>
      <path id="パス_2064" data-name="パス 2064" d="M176.515,472.934a27.221,27.221,0,0,1,5.227,3.425c1.082,1.262-.721,6.129,0,7.03s4.867,2.343,5.227,3.425,2.524,3.966,3.425,3.425.721,1.622,3.425,1.8a41.29,41.29,0,0,1,7.03,1.8c.721,0,1.262.18,3.425-1.8s3.605-1.442,5.227-3.425,2.7-1.262,3.425-3.425a46.505,46.505,0,0,0,1.442-6.85l-1.8-3.785-4.867-3.605v-3.966s-9.914-.18-11.717-2.163a4.326,4.326,0,0,1-1.262-2.7l-1.082-5.227-1.442-4.867-.541-2.884a13.343,13.343,0,0,0,2.163-3.064c1.082-1.983,6.85-2.523,6.85-2.523a27.567,27.567,0,0,0-1.622-2.524c-3.064-3.966-1.983-6.129-1.983-6.129h-6.129a9.914,9.914,0,0,0-7.39,3.605,11,11,0,0,0-3.966.18,51.2,51.2,0,0,1-8.652,0L165.7,442.11s1.082,3.605,1.8,3.425.36.721,1.8,1.8,4.326,3.605,3.425,3.425-3.425,1.8-3.425,1.8-1.262,2.524,0,3.425a6.67,6.67,0,0,1,1.8,3.425,19.472,19.472,0,0,1-3.425,1.8c-1.262.361-1.8-.541-1.8,1.8s3.425,4.506,3.425,5.227,3.605,2.343,3.425,3.425S176.515,472.934,176.515,472.934Z" transform="translate(132.472 347.765)" fill="#fff" stroke="#0066ad" stroke-width="0.685" fill-rule="evenodd"/>
      <path id="パス_2065" data-name="パス 2065" d="M193.585,409.37s5.588-3.605,5.227-5.227,0-1.8,0-1.8a7.571,7.571,0,0,1,0-3.425c.541-.9,3.064-.9,3.425-1.8a5.408,5.408,0,0,1,1.8-1.8s2.7-.361,3.425,1.8.721,3.245,1.8,3.425,2.524,1.983,1.8,3.425.18,2.884-1.8,3.425a15.861,15.861,0,0,0-5.227,3.425c-.721.721-2.884,2.163-3.425,3.425a15.5,15.5,0,0,1-3.425,3.425h-3.425v3.425l-1.8,5.227-1.8-1.8-.361-5.588,2.163-6.669Z" transform="translate(151.813 315.974)" fill="#fff" stroke="#0066ad" stroke-width="0.685" fill-rule="evenodd"/>
      <path id="パス_2066" data-name="パス 2066" d="M149.633,394.072a34.072,34.072,0,0,1,3.425-5.227c.721-.541,3.605,1.082,3.425,0s15.862.541,15.682,0,3.064-.9,3.425,0a48.86,48.86,0,0,1,0,7.03c0,1.082.541,4.506,1.8,3.425a58.717,58.717,0,0,1,5.227-3.425,4.326,4.326,0,0,1,1.8,3.425,3.244,3.244,0,0,1-1.8,3.425c-1.983,1.442-4.326,2.343-4.326,3.425s-2.7,1.082-.9,3.605a19.286,19.286,0,0,0,5.227,5.227,30.824,30.824,0,0,0,5.227,2.884c1.8.541,3.785,1.8,5.227,2.343s4.326,1.262,5.227,1.8a17.3,17.3,0,0,1,3.425,3.425c.721,1.082,0,1.983,0,3.425a21.27,21.27,0,0,0,1.8,5.227,32.8,32.8,0,0,0,0,5.227,21.63,21.63,0,0,1-1.8,8.652c-.9,1.622-.721,2.7-3.425,3.425s-6.489-.18-7.03,1.8-3.966,3.966-5.227,3.425-4.326-.9-5.227-1.8-3.605-.9-5.227-3.425a24.875,24.875,0,0,0-5.227-5.227h-7.03s-10.094.9-12.077,1.8-3.785,3.966-5.227,1.8a49.581,49.581,0,0,1-3.425-7.03,16.765,16.765,0,0,1-1.8-7.751,10.094,10.094,0,0,1,3.605-7.931c2.523-2.343,4.867-5.227,5.227-7.03s0-4.326,1.082-6.129,1.983-1.442,2.884-3.245,1.983-3.785-.361-6.129-4.687-4.687-4.506-5.588S149.633,394.072,149.633,394.072Z" transform="translate(112.488 310.363)" fill="#fff" stroke="#0066ad" stroke-width="0.685" fill-rule="evenodd"/>
      <path id="パス_2067" data-name="パス 2067" d="M153.4,444.585a54.616,54.616,0,0,1,3.425-5.227,25.6,25.6,0,0,1,5.227-5.227l7.03-5.227,3.425-1.8a34.246,34.246,0,0,0-3.425,5.227,34.26,34.26,0,0,1-3.425,5.227v3.425a3.425,3.425,0,0,0,1.8,3.425c1.622.9,1.8,3.425,1.8,3.425a11.717,11.717,0,0,0-3.425,1.8c-1.622,1.262-3.966.9-3.425,1.8s-2.524,3.064-3.425,1.8-3.425-5.227-3.425-5.227h-1.8Z" transform="translate(122.601 341.505)" fill="#fff" stroke="#0066ad" stroke-width="0.685" fill-rule="evenodd"/>
      <path id="パス_2068" data-name="パス 2068" d="M115.713,400.215s9.373,1.8,10.455,0,1.8-1.8,1.8-1.8h10.455s.541,1.442,3.425,1.8,7.751,1.082,8.652,0-1.082-3.244,1.8-3.425,4.867,2.163,7.03,1.8a19.647,19.647,0,0,0,7.03-1.8c2.163-1.262,5.768-5.227,7.03-5.227a32.983,32.983,0,0,0,5.768-2.163,40.376,40.376,0,0,0-2.343,5.588c-.361,1.082-1.983,3.245,0,5.227l5.227,5.227a34.6,34.6,0,0,1-1.8,5.228c-.541.721-2.7,2.343-3.425,3.425s-3.966,1.8-7.03,3.425-6.669,1.262-7.03,0-.9-4.146-3.425-5.227a19.828,19.828,0,0,1-5.227-3.425l-3.425,1.8c-.721.361-2.524,2.884-3.425,3.425s-5.227.721-5.227,0-.721-4.146-3.425-3.425-3.785-.18-5.227,1.8-2.7,1.082-5.227,3.425a18.566,18.566,0,0,1-5.227,3.425,27.378,27.378,0,0,1-1.983,2.7,23.79,23.79,0,0,1-3.425,2.7,2.343,2.343,0,0,1-1.442,1.442c-1.8.721-9.373-.18-8.652,0s-.18-1.262,0-3.425.541-2.343,3.425-5.227,5.227-2.163,5.227-5.227-.721-3.425,0-5.227a23.615,23.615,0,0,0-.361-6.85Z" transform="translate(85.662 311.249)" fill="#fff" stroke="#0066ad" stroke-width="0.685" fill-rule="evenodd"/>
      <path id="パス_2069" data-name="パス 2069" d="M123.877,455.058l-3.966-8.111-2.7-5.047c-2.343-4.506-1.442-6.129-1.622-7.751a15.322,15.322,0,0,0-1.983-4.506,20.731,20.731,0,0,1-1.8-5.227,37.673,37.673,0,0,0,0-7.03l7.03-7.03a17.305,17.305,0,0,0,3.425-1.8l8.111-5.948a13.522,13.522,0,0,1,4.146-1.082c2.524-.361,3.785,3.785,3.785,3.785H142.8l3.605-3.425,3.785-1.983,3.425,2.524a16.763,16.763,0,0,1,3.605,2.343,13.881,13.881,0,0,1,1.8,3.965c.36,1.082,1.442,1.262,3.064,1.082a29.742,29.742,0,0,0,7.39-2.884l3.966-2.343c0,2.163-.361,5.768-.361,5.768a34.8,34.8,0,0,1-3.425,5.227,21.09,21.09,0,0,0-5.227,7.03s-.721,1.081,0,4.687a19.466,19.466,0,0,0,1.8,5.768c.721,1.082-.361-.18.9,2.163l2.523,4.867s-3.605-1.8-5.227,0-3.605,3.605-5.227,5.227a47.053,47.053,0,0,1-5.227,3.425c-2.343,1.622-5.768,4.506-5.227,5.227s-1.082,3.605-5.227,3.425h-8.652l-1.8-3.425-1.8,3.425-3.785-.9Z" transform="translate(89.215 319.676)" fill="#fff" stroke="#0066ad" stroke-width="0.685" fill-rule="evenodd"/>
      <path id="パス_2070" data-name="パス 2070" d="M66.89,451.15s5.227-1.983,7.03-4.506a127.64,127.64,0,0,1,10.455-12.077c1.622-1.262,5.047-5.047,7.03-6.85a23.8,23.8,0,0,1,5.227-3.425l3.425-1.8,7.03-7.03a35.687,35.687,0,0,1,5.227-3.425l3.425-1.8c.721-.361-1.082-6.309,0-7.03s3.605-2.884,3.425-3.425,7.03-3.425,7.03-3.425,2.884-3.605,5.227-3.425,5.948,2.163,7.03,0,13.88,0,13.88,0l-1.8,5.227a29.74,29.74,0,0,1,.18,6.489c-.721,3.966,1.081,5.408-.9,7.751a34.247,34.247,0,0,1-5.227,3.966,22.9,22.9,0,0,0-2.524,3.425s.541,3.966-.18,3.966-8.472.18-10.274.361-4.687-1.262-5.227,0a24.333,24.333,0,0,1-3.425,5.227c-1.082,1.262-1.262.18-3.245,1.622s-1.622,2.163-1.622,2.163,4.687,2.343,3.966,3.966a60.56,60.56,0,0,1-6.489,3.966,16.944,16.944,0,0,1-5.588,2.163c-3.245.721-8.472-1.442-10.455-1.082s-2.7-.18-4.326,1.082a29.922,29.922,0,0,0-3.605,3.064c-.541.721-.9.18-1.622,2.163s0,4.506-1.082,5.948S86,457.279,84.375,459.8s0,5.768-1.262,7.751-1.983,4.867-3.425,5.227a63.274,63.274,0,0,1-9.734-.361s-3.245-.9-2.343-2.163a19.3,19.3,0,0,0,1.8-3.064,6.669,6.669,0,0,1-1.622-1.262,10.634,10.634,0,0,1-2.524-3.6c-1.082-2.343-1.442-4.326-.541-5.408a39.833,39.833,0,0,0,2.163-5.768Z" transform="translate(51.027 313.309)" fill="#fff" stroke="#0066ad" stroke-width="0.685" fill-rule="evenodd"/>
      <path id="パス_2071" data-name="パス 2071" d="M82.839,464.947s4.687-3.785,5.408-4.687,5.227-5.227,5.227-5.227H96.9l3.425,3.425s-1.082,6.85,0,7.03,3.785,1.983,5.227,1.8a26.5,26.5,0,0,0,7.03-3.425h-.18s.721-.18,1.8-1.8,5.768-4.326,5.227-3.425-.9-.9,1.8,0a12.075,12.075,0,0,0,7.03,0c1.082-.541,2.7-2.884,3.425-3.425a13.155,13.155,0,0,0,1.8-1.8l5.227-1.8a4.326,4.326,0,0,1,3.425,1.8c1.262,1.442,1.983,2.343,3.425,1.8s3.966-3.064,5.227-3.425,3.425-4.146,3.425-4.146l-2.884-5.408a20.371,20.371,0,0,1-2.163-4.326c-.361-1.081-1.622-2.163-1.8-3.425s-1.262-1.8-1.8-5.227a8.47,8.47,0,0,0,0-3.425c-1.262-3.966-2.343-4.146-2.884-5.768a8.652,8.652,0,0,1-.541-4.687,41.1,41.1,0,0,0,0-5.227h-7.931l-2.163-.361-11.356.361s-1.622-1.262-2.884,0-2.163,4.506-3.425,5.227-5.768,2.7-5.227,3.425,6.309,3.605,3.425,5.227a70.51,70.51,0,0,1-7.03,3.425c-1.8.721-5.047,2.343-7.03,1.8a33.711,33.711,0,0,0-5.047-1.262l-6.129.36-2.524,2.163a12.618,12.618,0,0,0-3.605,3.966c-.9,1.622-.541,6.489-1.8,7.03s-2.524,2.7-3.425,3.425-.9,4.146-1.082,5.768a9.733,9.733,0,0,0-.18,3.245c.18,2.524,5.047,3.425,4.687,5.047a9.913,9.913,0,0,0,0,5.227,2.163,2.163,0,0,0,3.425.721Z" transform="translate(59.413 327.451)" fill="#fff" stroke="#0066ad" stroke-width="0.685" fill-rule="evenodd"/>
      <path id="パス_2072" data-name="パス 2072" d="M43.626,453.954s-4.687-7.03-3.425-7.03a4.326,4.326,0,0,0,5.227-1.8c1.983-2.7,2.343-6.129,3.425-5.227a75.345,75.345,0,0,0,7.03,3.425s.541,4.146,3.425,1.8a27.756,27.756,0,0,1,5.227-3.425c1.983-1.262,3.785-4.146,5.227-5.227a28.116,28.116,0,0,0,3.425-3.425s3.425-.361,3.425-1.8a5.588,5.588,0,0,1,1.8-5.227c2.343-2.343,7.39-1.082,7.03-1.8s1.8.18,1.8,1.8-3.785,4.506-3.425,7.03a15.861,15.861,0,0,0,1.8,5.227c.541,1.262,3.785,1.8,3.425,3.425s-2.524,1.622-1.8,3.425,7.03,1.8,7.03,1.8h5.588l3.064-5.047a8.473,8.473,0,0,0,1.8,1.8c.9.721,3.425,2.7,3.425,3.425s-.721,4.687,0,5.227.721,1.983,1.8,1.8,1.442-1.082,1.8.36a5.228,5.228,0,0,1-.18,4.687c-1.082,2.884,2.163,3.245,1.8,5.227s1.8,4.506,0,5.227-2.884.721-3.425,1.8-2.884,2.343-1.8,3.425,4.506,3.605,3.425,3.425a49.574,49.574,0,0,1-7.03-3.425l-5.227-1.8L95.9,469.636c-3.605-3.605-7.21-4.146-8.652-5.227s-2.884-1.262-3.425,0-1.983.541-3.425,1.8-8.652,0-8.652,0,1.082,3.064,0,3.425-5.227-3.425-5.227-3.425v3.425a3.245,3.245,0,0,1-1.8,1.8c-1.442.541-4.867,1.983-7.03,0s-1.262-2.343-3.425-3.425-2.524-3.425-3.425-3.425-.541,1.262-1.8,1.8-3.785.361-3.425,1.8,1.082,2.884,0,3.425-3.245-2.523-3.425-3.425a13.159,13.159,0,0,0-1.8-5.227c-1.442-2.343-1.442-2.7,0-3.425S43.266,453.774,43.626,453.954Z" transform="translate(31.03 338.985)" fill="#fff" stroke="#0066ad" stroke-width="0.685" fill-rule="evenodd"/>
      <path id="パス_2073" data-name="パス 2073" d="M16.977,477.648a5.407,5.407,0,0,1,0-3.425c.541-2.163,7.03-5.227,7.03-5.227s3.245,6.489,5.227,5.227,2.7-3.605,3.425-5.227a4.506,4.506,0,0,0,0-3.425l3.425-5.227s-.721-.541,0-1.8-.541-2.163,3.425-3.425,5.588,1.262,7.03,0a34.413,34.413,0,0,0,3.425-3.425c.9-1.082,5.768-1.262,7.03,0s4.506,3.245,5.227,1.8,1.082-.721,1.8,0a52.991,52.991,0,0,1,1.8,7.03,17.844,17.844,0,0,0,3.425,5.227c1.622,2.163,1.082,5.227,3.425,5.227a3.785,3.785,0,0,1,3.425,1.8,16.585,16.585,0,0,1-.541,3.785c-.36.9.541,1.622-3.245,1.442s-4.867-.541-6.129.18-1.8,3.605-4.146,5.047-3.785,2.343-3.966,3.785,1.082,2.163.541,3.064-1.983,2.343-1.8,3.785a6.309,6.309,0,0,0,1.8,3.064c.541.721.36,6.85,0,8.652s-5.408,0-7.03-1.8-3.245-3.064-3.425-1.8-5.408.721-7.03,3.425-5.768,7.571-5.227,8.652-1.8-5.227-1.8-5.227-2.163-4.146-1.8-5.227-1.8-1.8-1.8-1.8l-1.8-1.8a25.963,25.963,0,0,1,1.8-3.425c.541-.721,2.163-3.605,3.425-3.425s.9,0,3.425-1.8,3.064-1.262,3.425-3.425a8.833,8.833,0,0,0-1.8-5.227s-2.163-1.262-3.425,0l-3.425,3.425L28.693,482.7l-1.8-1.8s-3.785-2.524-3.425-1.8-1.8,1.8-1.8,1.8l-3.425,1.8s-2.343-.721-1.8-1.8A9.515,9.515,0,0,0,16.977,477.648Z" transform="translate(12.616 360.535)" fill="#fff" stroke="#0066ad" stroke-width="0.685" fill-rule="evenodd"/>
    </g>
  </g>
</svg>
